<svg width="35" height="35" viewBox="0 0 35 35" fill="none" xmlns="http://www.w3.org/2000/svg">
<path d="M4.01367 34.25C2.98242 34.25 2.0993 33.8825 1.3643 33.1475C0.6293 32.4125 0.262425 31.53 0.263675 30.5V4.25C0.263675 3.21875 0.631175 2.33563 1.36618 1.60063C2.10118 0.865628 2.98368 0.498753 4.01367 0.500003H30.2637C31.2949 0.500003 32.1781 0.867503 32.9131 1.6025C33.6481 2.3375 34.0149 3.22 34.0137 4.25V30.5C34.0137 31.5313 33.6462 32.4144 32.9112 33.1494C32.1762 33.8844 31.2937 34.2513 30.2637 34.25H4.01367ZM4.01367 30.5H15.2637V4.25H4.01367V30.5ZM19.0137 30.5H30.2637V17.375H19.0137V30.5ZM19.0137 13.625H30.2637V4.25H19.0137V13.625Z" fill="#2C68F3"/>
</svg>
