<svg width="42" height="42" viewBox="0 0 42 42" fill="none" xmlns="http://www.w3.org/2000/svg">
<path d="M20.9743 27.0067C22.5368 27.0067 23.8649 26.4598 24.9586 25.3661C26.0524 24.2723 26.5993 22.9442 26.5993 21.3817C26.5993 19.8192 26.0524 18.4911 24.9586 17.3973C23.8649 16.3036 22.5368 15.7567 20.9743 15.7567C19.4118 15.7567 18.0836 16.3036 16.9899 17.3973C15.8961 18.4911 15.3493 19.8192 15.3493 21.3817C15.3493 22.9442 15.8961 24.2723 16.9899 25.3661C18.0836 26.4598 19.4118 27.0067 20.9743 27.0067ZM20.9743 30.7567C18.3805 30.7567 16.1692 29.8423 14.3405 28.0136C12.5117 26.1848 11.598 23.9742 11.5992 21.3817C11.5992 18.788 12.5136 16.5767 14.3424 14.748C16.1711 12.9192 18.3818 12.0055 20.9743 12.0067C23.568 12.0067 25.7793 12.9211 27.608 14.7498C29.4368 16.5786 30.3505 18.7892 30.3493 21.3817C30.3493 23.9755 29.4349 26.1867 27.6061 28.0155C25.7774 29.8442 23.5667 30.758 20.9743 30.7567ZM2.22425 23.2567C1.693 23.2567 1.24737 23.0767 0.887375 22.7167C0.527375 22.3567 0.348 21.9117 0.34925 21.3817C0.34925 20.8505 0.52925 20.4048 0.88925 20.0448C1.24925 19.6848 1.69425 19.5055 2.22425 19.5067H5.97425C6.5055 19.5067 6.95112 19.6867 7.31112 20.0467C7.67112 20.4067 7.8505 20.8517 7.84925 21.3817C7.84925 21.913 7.66925 22.3586 7.30925 22.7186C6.94925 23.0786 6.50425 23.258 5.97425 23.2567H2.22425ZM35.9743 23.2567C35.443 23.2567 34.9974 23.0767 34.6374 22.7167C34.2774 22.3567 34.098 21.9117 34.0993 21.3817C34.0993 20.8505 34.2793 20.4048 34.6393 20.0448C34.9993 19.6848 35.4443 19.5055 35.9743 19.5067H39.7243C40.2555 19.5067 40.7011 19.6867 41.0611 20.0467C41.4211 20.4067 41.6005 20.8517 41.5993 21.3817C41.5993 21.913 41.4193 22.3586 41.0592 22.7186C40.6992 23.0786 40.2542 23.258 39.7243 23.2567H35.9743ZM20.9743 8.25672C20.443 8.25672 19.9974 8.07672 19.6374 7.71672C19.2774 7.35672 19.098 6.91172 19.0993 6.38172V2.63172C19.0993 2.10047 19.2793 1.65485 19.6392 1.29485C19.9993 0.934845 20.4443 0.75547 20.9743 0.75672C21.5055 0.75672 21.9511 0.93672 22.3111 1.29672C22.6711 1.65672 22.8505 2.10172 22.8493 2.63172V6.38172C22.8493 6.91297 22.6693 7.3586 22.3092 7.7186C21.9492 8.0786 21.5042 8.25797 20.9743 8.25672ZM20.9743 42.0067C20.443 42.0067 19.9974 41.8267 19.6374 41.4667C19.2774 41.1067 19.098 40.6617 19.0993 40.1317V36.3817C19.0993 35.8505 19.2793 35.4048 19.6392 35.0448C19.9993 34.6848 20.4443 34.5055 20.9743 34.5067C21.5055 34.5067 21.9511 34.6867 22.3111 35.0467C22.6711 35.4067 22.8505 35.8517 22.8493 36.3817V40.1317C22.8493 40.663 22.6693 41.1086 22.3092 41.4686C21.9492 41.8286 21.5042 42.008 20.9743 42.0067ZM9.068 12.1005L7.05237 10.1317C6.67737 9.78797 6.49738 9.35047 6.51238 8.81922C6.52738 8.28797 6.70737 7.83485 7.05237 7.45985C7.42737 7.08485 7.8805 6.89735 8.41175 6.89735C8.943 6.89735 9.3805 7.08485 9.72425 7.45985L11.693 9.47547C12.0367 9.85047 12.2086 10.288 12.2086 10.788C12.2086 11.288 12.0367 11.7255 11.693 12.1005C11.3492 12.4755 10.9199 12.6555 10.4049 12.6405C9.88987 12.6255 9.44425 12.4455 9.068 12.1005ZM32.2243 35.3036L30.2555 33.288C29.9118 32.913 29.7399 32.4673 29.7399 31.9511C29.7399 31.4348 29.9118 31.0055 30.2555 30.663C30.5993 30.288 31.0293 30.1086 31.5455 30.1248C32.0618 30.1411 32.5068 30.3205 32.8805 30.663L34.8961 32.6317C35.2711 32.9755 35.4511 33.413 35.4361 33.9442C35.4211 34.4755 35.2411 34.9286 34.8961 35.3036C34.5211 35.6786 34.068 35.8661 33.5368 35.8661C33.0055 35.8661 32.568 35.6786 32.2243 35.3036ZM30.2555 12.1005C29.8805 11.7567 29.7005 11.3273 29.7155 10.8123C29.7305 10.2973 29.9105 9.85172 30.2555 9.47547L32.2243 7.45985C32.568 7.08485 33.0055 6.90485 33.5368 6.91985C34.068 6.93485 34.5211 7.11485 34.8961 7.45985C35.2711 7.83485 35.4586 8.28797 35.4586 8.81922C35.4586 9.35047 35.2711 9.78797 34.8961 10.1317L32.8805 12.1005C32.5055 12.4442 32.068 12.6161 31.568 12.6161C31.068 12.6161 30.6305 12.4442 30.2555 12.1005ZM7.05237 35.3036C6.67737 34.9286 6.48987 34.4755 6.48987 33.9442C6.48987 33.413 6.67737 32.9755 7.05237 32.6317L9.068 30.663C9.443 30.3192 9.888 30.1473 10.403 30.1473C10.918 30.1473 11.348 30.3192 11.693 30.663C12.068 31.0067 12.248 31.4367 12.233 31.953C12.218 32.4692 12.038 32.9142 11.693 33.288L9.72425 35.3036C9.3805 35.6786 8.943 35.8586 8.41175 35.8436C7.8805 35.8286 7.42737 35.6486 7.05237 35.3036Z" fill="white"/>
</svg>
