<svg width="38" height="39" viewBox="0 0 38 39" fill="none" xmlns="http://www.w3.org/2000/svg">
<path d="M15.2637 23.2706H22.7637V19.5206H15.2637V23.2706ZM15.2637 17.6456H30.2637V13.8956H15.2637V17.6456ZM15.2637 12.0206H30.2637V8.27063H15.2637V12.0206ZM11.5137 30.7706C10.4824 30.7706 9.5993 30.4031 8.8643 29.6681C8.1293 28.9331 7.76243 28.0506 7.76368 27.0206V4.52063C7.76368 3.48938 8.13118 2.60626 8.86617 1.87126C9.60118 1.13626 10.4837 0.769383 11.5137 0.770633H34.0137C35.0449 0.770633 35.9281 1.13813 36.6631 1.87313C37.3981 2.60813 37.7649 3.49063 37.7637 4.52063V27.0206C37.7637 28.0519 37.3962 28.935 36.6612 29.67C35.9262 30.405 35.0437 30.7719 34.0137 30.7706H11.5137ZM11.5137 27.0206H34.0137V4.52063H11.5137V27.0206ZM4.01367 38.2706C2.98242 38.2706 2.0993 37.9031 1.3643 37.1681C0.6293 36.4331 0.262425 35.5506 0.263675 34.5206V8.27063H4.01367V34.5206H30.2637V38.2706H4.01367Z" fill="#7D7D7D"/>
</svg>
